<svg width="150" height="150" viewBox="0 0 150 150" fill="none" xmlns="http://www.w3.org/2000/svg">
<path d="M100.409 41.0511C127.971 42.078 150 64.723 150 92.5075C150 120.946 126.922 144 98.4536 144C75.7405 144 56.4586 129.325 49.5907 108.949C50.2396 108.973 50.8916 108.985 51.5464 108.985C80.0147 108.985 103.093 85.9311 103.093 57.4925C103.093 51.7433 102.149 46.2142 100.409 41.0511ZM51.5464 6C74.2594 6 93.5411 20.675 100.409 41.0511C99.7602 41.027 99.1083 41.0149 98.4536 41.0149C69.9853 41.0149 46.9072 64.0689 46.9072 92.5075C46.9072 98.2566 47.8505 103.786 49.5907 108.949C22.0287 107.922 0 85.277 0 57.4925C0 29.054 23.0781 6 51.5464 6Z" fill="black"/>
</svg>
