<svg width="128" height="128" viewBox="0 0 128 128" fill="none" xmlns="http://www.w3.org/2000/svg">
<rect width="128" height="128" fill="#333333"/>
<path d="M63.5772 112C57.2454 112 51.2824 110.761 45.6879 108.283C40.1368 105.761 35.0411 102.065 30.4007 97.1957C28.4058 95.1522 26.5843 92.8261 24.9363 90.2174C23.2884 87.5652 21.8789 84.6304 20.708 81.413C19.537 78.1957 18.6263 74.6739 17.9758 70.8478C17.3253 66.9783 17 62.7826 17 58.2609C17 55.0435 17.5855 51.7609 18.7564 48.413C19.9707 45.0217 21.6187 41.7826 23.7003 38.6957C25.782 35.5652 28.2323 32.6739 31.0512 30.0217C33.8701 27.3261 36.9059 25.0217 40.1585 23.1087C44.582 20.413 48.9839 18.5652 53.364 17.5652C57.7875 16.5217 61.8641 16 65.5938 16C67.4586 16 69.4102 16.1522 71.4484 16.4565C73.4867 16.7609 75.4166 17.1522 77.2381 17.6304C79.1029 18.1087 80.7942 18.6304 82.3121 19.1957C83.8734 19.7609 85.0877 20.3043 85.955 20.8261C88.0367 22.087 90.1617 23.6522 92.3301 25.5217C94.4985 27.3913 96.5368 29.413 98.445 31.587C100.353 33.7609 102.066 36 103.584 38.3043C105.145 40.5652 106.36 42.7174 107.227 44.7609C108.702 48.1522 109.699 51.5435 110.219 54.9348C110.74 58.3261 111 61.8478 111 65.5C111 69.413 110.588 73.087 109.764 76.5217C108.983 79.913 107.834 83.1087 106.316 86.1087C104.798 89.1087 102.934 91.9348 100.722 94.587C98.5534 97.1957 96.0814 99.6957 93.3059 102.087C91.2676 103.783 89.1859 105.261 87.0609 106.522C84.9359 107.739 82.6591 108.761 80.2305 109.587C77.8452 110.413 75.2865 111.022 72.5543 111.413C69.8221 111.804 66.8298 112 63.5772 112ZM33.9785 64.9783C33.9785 67.0652 34.087 69.1957 34.3038 71.3696C34.5206 73.5 34.8676 75.6304 35.3446 77.7609C35.8217 79.8478 36.4288 81.8696 37.1661 83.8261C37.9467 85.7826 38.8791 87.6087 39.9633 89.3043C41.3511 91.6087 42.8907 93.8696 44.582 96.087C46.3167 98.2609 48.2249 100.239 50.3066 102.022C52.4316 103.761 54.7518 105.174 57.2671 106.261C59.8258 107.304 62.6014 107.826 65.5938 107.826C68.4127 107.826 71.1449 107.152 73.7903 105.804C76.4358 104.413 78.886 102.609 81.1412 100.391C83.3963 98.1304 85.4129 95.587 87.191 92.7609C89.0125 89.9348 90.487 87.0652 91.6145 84.1522C91.7446 83.7174 92.0048 82.9348 92.3952 81.8043C92.8288 80.6304 93.2625 79.2174 93.6962 77.5652C94.1299 75.913 94.4985 74.0435 94.8021 71.9565C95.149 69.8696 95.3225 67.6522 95.3225 65.3043C95.3225 63.2174 95.149 60.9565 94.8021 58.5217C94.4985 56.087 93.9998 53.587 93.3059 51.0217C92.6554 48.413 91.8314 45.8043 90.8339 43.1957C89.8365 40.587 88.6655 38.087 87.3211 35.6957C86.1502 33.6522 84.7841 31.6522 83.2228 29.6957C81.6616 27.6957 79.8835 25.9348 77.8886 24.413C75.937 22.8478 73.7686 21.6087 71.3834 20.6957C68.9982 19.7391 66.3961 19.2609 63.5772 19.2609C60.8884 19.2609 58.3296 19.8261 55.901 20.9565C53.4724 22.087 51.2607 23.5 49.2657 25.1957C47.2708 26.8478 45.5144 28.6304 43.9965 30.5435C42.522 32.413 41.3294 34.1304 40.4187 35.6957C39.7248 36.913 38.9875 38.4348 38.2069 40.2609C37.4697 42.087 36.7758 44.2174 36.1253 46.6522C35.5181 49.087 34.9977 51.8478 34.564 54.9348C34.1737 57.9783 33.9785 61.3261 33.9785 64.9783Z" fill="white"/>
</svg>
