<svg width="150" height="150" viewBox="0 0 150 150" fill="none" xmlns="http://www.w3.org/2000/svg">
<path fill-rule="evenodd" clip-rule="evenodd" d="M106.366 149.362C107.56 149.827 108.836 150.042 110.116 149.993C111.396 149.944 112.652 149.633 113.806 149.078L144.69 134.24C146.281 133.475 147.623 132.278 148.563 130.785C149.502 129.293 150 127.566 150 125.803V25.1941C150 23.4316 149.502 21.7048 148.562 20.2125C147.623 18.7203 146.281 17.5231 144.69 16.7589L113.808 1.92084C112.063 1.08331 110.1 0.807832 108.191 1.13248C106.282 1.45713 104.521 2.36588 103.152 3.7331L44.031 57.5856L18.2789 38.0702C17.1177 37.1892 15.6841 36.7422 14.2272 36.8068C12.7702 36.8713 11.3819 37.4434 10.3034 38.4236L2.04294 45.9258C1.39989 46.5106 0.886069 47.223 0.534306 48.0173C0.182542 48.8116 0.000565958 49.6705 1.31803e-06 50.539C-0.000563322 51.4075 0.180296 52.2666 0.531026 53.0613C0.881757 53.8561 1.39465 54.5691 2.03694 55.1548L24.369 75.4985L2.03694 95.8423C1.39465 96.428 0.881757 97.1409 0.531026 97.9357C0.180296 98.7305 -0.000563322 99.5896 1.31803e-06 100.458C0.000565958 101.327 0.182542 102.185 0.534306 102.98C0.886069 103.774 1.39989 104.486 2.04294 105.071L10.3034 112.573C11.3819 113.554 12.7702 114.126 14.2272 114.19C15.6841 114.255 17.1177 113.808 18.2789 112.927L44.031 93.4114L103.152 147.267C104.066 148.182 105.161 148.894 106.366 149.362ZM112.521 41.5L67.662 75.4985L112.521 109.499V41.5Z" fill="black"/>
</svg>
