<svg width="94" height="96" viewBox="0 0 94 96" fill="none" xmlns="http://www.w3.org/2000/svg">
<path d="M46.5772 96C40.2454 96 34.2824 94.7609 28.6879 92.2826C23.1368 89.7609 18.0411 86.0652 13.4007 81.1956C11.4058 79.1522 9.58431 76.8261 7.93633 74.2174C6.28835 71.5652 4.87889 68.6304 3.70796 65.413C2.53702 62.1957 1.6263 58.6739 0.975779 54.8478C0.32526 50.9783 0 46.7826 0 42.2609C0 39.0435 0.585467 35.7609 1.7564 32.413C2.9707 29.0217 4.61869 25.7826 6.70035 22.6957C8.78201 19.5652 11.2323 16.6739 14.0512 14.0217C16.8701 11.3261 19.9059 9.02174 23.1585 7.1087C27.582 4.41304 31.9839 2.56522 36.364 1.56522C40.7875 0.521739 44.8641 0 48.5938 0C50.4586 0 52.4102 0.152174 54.4484 0.456522C56.4867 0.76087 58.4166 1.15217 60.2381 1.63043C62.1029 2.1087 63.7942 2.63043 65.3121 3.19565C66.8734 3.76087 68.0877 4.30435 68.955 4.82609C71.0367 6.08696 73.1617 7.65217 75.3301 9.52174C77.4985 11.3913 79.5368 13.413 81.445 15.587C83.3532 17.7609 85.0662 20 86.5841 22.3043C88.1453 24.5652 89.3596 26.7174 90.227 28.7609C91.7015 32.1522 92.699 35.5435 93.2194 38.9348C93.7398 42.3261 94 45.8478 94 49.5C94 53.413 93.588 57.087 92.764 60.5217C91.9834 63.913 90.8341 67.1087 89.3163 70.1087C87.7984 73.1087 85.9336 75.9348 83.7218 78.587C81.5534 81.1956 79.0814 83.6956 76.3059 86.087C74.2676 87.7826 72.1859 89.2609 70.0609 90.5217C67.9359 91.7391 65.6591 92.7609 63.2305 93.587C60.8452 94.413 58.2865 95.0217 55.5543 95.413C52.8221 95.8043 49.8298 96 46.5772 96ZM16.9785 48.9783C16.9785 51.0652 17.087 53.1957 17.3038 55.3696C17.5206 57.5 17.8676 59.6304 18.3446 61.7609C18.8217 63.8478 19.4288 65.8696 20.1661 67.8261C20.9467 69.7826 21.8791 71.6087 22.9633 73.3043C24.3511 75.6087 25.8907 77.8696 27.582 80.087C29.3167 82.2609 31.2249 84.2391 33.3066 86.0217C35.4316 87.7609 37.7518 89.1739 40.2671 90.2609C42.8258 91.3043 45.6014 91.8261 48.5938 91.8261C51.4127 91.8261 54.1449 91.1522 56.7903 89.8043C59.4358 88.413 61.886 86.6087 64.1412 84.3913C66.3963 82.1304 68.4129 79.587 70.191 76.7609C72.0125 73.9348 73.487 71.0652 74.6145 68.1522C74.7446 67.7174 75.0048 66.9348 75.3952 65.8043C75.8288 64.6304 76.2625 63.2174 76.6962 61.5652C77.1299 59.913 77.4985 58.0435 77.8021 55.9565C78.149 53.8696 78.3225 51.6522 78.3225 49.3043C78.3225 47.2174 78.149 44.9565 77.8021 42.5217C77.4985 40.087 76.9998 37.587 76.3059 35.0217C75.6554 32.413 74.8314 29.8043 73.8339 27.1957C72.8364 24.587 71.6655 22.087 70.3211 19.6957C69.1502 17.6522 67.7841 15.6522 66.2228 13.6957C64.6616 11.6957 62.8835 9.93478 60.8886 8.41304C58.937 6.84783 56.7686 5.6087 54.3834 4.69565C51.9982 3.73913 49.3961 3.26087 46.5772 3.26087C43.8884 3.26087 41.3296 3.82609 38.901 4.95652C36.4724 6.08696 34.2607 7.5 32.2657 9.19565C30.2708 10.8478 28.5144 12.6304 26.9965 14.5435C25.522 16.413 24.3294 18.1304 23.4187 19.6957C22.7248 20.913 21.9875 22.4348 21.2069 24.2609C20.4697 26.087 19.7758 28.2174 19.1253 30.6522C18.5181 33.087 17.9977 35.8478 17.564 38.9348C17.1737 41.9783 16.9785 45.3261 16.9785 48.9783Z" fill="white"/>
</svg>
