<svg width="276" height="180" viewBox="0 0 276 180" fill="none" xmlns="http://www.w3.org/2000/svg">
<path d="M30.675 171.507L30.71 171.524L30.745 171.54C39.403 175.529 49.015 177.5 59.54 177.5C69.655 177.5 78.955 175.522 87.4 171.53L87.412 171.524L87.424 171.518C96.175 167.263 103.125 160.761 108.253 152.085C113.651 143.1 116.26 131.797 116.26 118.333V55.936C116.26 50.298 117.267 45.886 119.109 42.553C121.22 39.121 123.837 36.737 126.943 35.278L126.97 35.265L126.996 35.252C130.479 33.514 134.137 32.65 138 32.65C141.862 32.65 145.393 33.513 148.633 35.225L148.685 35.253L148.738 35.278C151.858 36.743 154.483 39.142 156.599 42.598C158.631 45.916 159.74 50.308 159.74 55.936V118.333C159.74 131.785 162.238 143.076 167.409 152.053L167.428 152.085L167.447 152.117C172.785 160.775 179.833 167.266 188.576 171.518L188.599 171.529L188.623 171.54C197.267 175.522 206.663 177.5 216.779 177.5C227.099 177.5 236.507 175.526 244.958 171.53L244.971 171.524L244.983 171.518C253.736 167.261 260.688 160.757 265.817 152.077L265.824 152.065L265.831 152.053C271.002 143.076 273.5 131.785 273.5 118.333V8.82001V6.32001H271H241.338H238.838V8.82001V123.427C238.838 128.804 237.745 133.223 235.682 136.791C233.556 140.256 230.889 142.907 227.682 144.801C224.472 146.486 220.855 147.35 216.779 147.35C212.703 147.35 208.957 146.486 205.505 144.772C202.095 142.871 199.346 140.224 197.239 136.791C195.176 133.223 194.083 128.804 194.083 123.427V60.393C194.083 47.583 191.693 36.824 186.736 28.271C181.827 19.59 175.092 13.077 166.546 8.812C158.076 4.585 148.543 2.5 138 2.5C127.457 2.5 117.924 4.585 109.454 8.812C100.908 13.077 94.173 19.59 89.264 28.271C84.307 36.824 81.917 47.583 81.917 60.393V123.427C81.917 128.78 80.729 133.176 78.477 136.734L78.467 136.75L78.458 136.766C76.348 140.211 73.594 142.866 70.175 144.772C66.707 146.494 63.065 147.35 59.221 147.35C55.358 147.35 51.7 146.486 48.217 144.748C44.866 143.076 42.131 140.466 40.014 136.817C37.941 133.244 36.843 128.817 36.843 123.427V8.82001V6.32001H34.343H5H2.5V8.82001V118.333C2.5 131.785 4.99801 143.076 10.169 152.053L10.176 152.065L10.183 152.077C15.302 160.741 22.136 167.245 30.675 171.507Z" fill="white" stroke="white" stroke-width="5"/>
</svg>
