<?xml version="1.0" encoding="utf-8"?>
<svg xmlns="http://www.w3.org/2000/svg" height="28.346" viewBox="0 0 249.449 283.465" width="24.945">
  <path d="M115.262 224.021c-18.718 0-30.627-11.355-30.627-25.759 0-61.635 162.083-73.975 162.083-139.431 0-39.931-46.255-57.142-105.3-57.142-35.916 0-76.528 6.648-114.243 18.543v78.086c55.581-40.482 117.336-57.812 157.113-57.812 25.012 0 41.984 6.979 41.984 19.483 0 51.517-223.541 43.354-223.542 154.672 0 42.668 29.339 67.114 70.617 67.114 62.436 0 109.662-60.676 144.992-134.637l7.158 2.571c-18.607 45.198-57.113 94.757-64.613 126.614h80.382V111.506h-18.565c-26.947 58.556-66.436 112.515-107.439 112.515" fill="#fff"/>
</svg>