<svg width="723" height="736" viewBox="0 0 723 736" fill="none" xmlns="http://www.w3.org/2000/svg">
<path d="M358 736C309.333 736 263.5 726.5 220.5 707.5C177.833 688.167 138.667 659.833 103 622.5C87.6667 606.833 73.6667 589 61 569C48.3333 548.667 37.5 526.167 28.5 501.5C19.5 476.833 12.5 449.833 7.5 420.5C2.5 390.833 0 358.667 0 324C0 299.333 4.5 274.167 13.5 248.5C22.8333 222.5 35.5 197.667 51.5 174C67.5 150 86.3333 127.833 108 107.5C129.667 86.8333 153 69.1667 178 54.5C212 33.8333 245.833 19.6667 279.5 12C313.5 4 344.833 0 373.5 0C387.833 0 402.833 1.16667 418.5 3.5C434.167 5.83333 449 8.83333 463 12.5C477.333 16.1667 490.333 20.1667 502 24.5C514 28.8333 523.333 33 530 37C546 46.6667 562.333 58.6667 579 73C595.667 87.3333 611.333 102.833 626 119.5C640.667 136.167 653.833 153.333 665.5 171C677.5 188.333 686.833 204.833 693.5 220.5C704.833 246.5 712.5 272.5 716.5 298.5C720.5 324.5 722.5 351.5 722.5 379.5C722.5 409.5 719.333 437.667 713 464C707 490 698.167 514.5 686.5 537.5C674.833 560.5 660.5 582.167 643.5 602.5C626.833 622.5 607.833 641.667 586.5 660C570.833 673 554.833 684.333 538.5 694C522.167 703.333 504.667 711.167 486 717.5C467.667 723.833 448 728.5 427 731.5C406 734.5 383 736 358 736ZM130.5 375.5C130.5 391.5 131.333 407.833 133 424.5C134.667 440.833 137.333 457.167 141 473.5C144.667 489.5 149.333 505 155 520C161 535 168.167 549 176.5 562C187.167 579.667 199 597 212 614C225.333 630.667 240 645.833 256 659.5C272.333 672.833 290.167 683.667 309.5 692C329.167 700 350.5 704 373.5 704C395.167 704 416.167 698.833 436.5 688.5C456.833 677.833 475.667 664 493 647C510.333 629.667 525.833 610.167 539.5 588.5C553.5 566.833 564.833 544.833 573.5 522.5C574.5 519.167 576.5 513.167 579.5 504.5C582.833 495.5 586.167 484.667 589.5 472C592.833 459.333 595.667 445 598 429C600.667 413 602 396 602 378C602 362 600.667 344.667 598 326C595.667 307.333 591.833 288.167 586.5 268.5C581.5 248.5 575.167 228.5 567.5 208.5C559.833 188.5 550.833 169.333 540.5 151C531.5 135.333 521 120 509 105C497 89.6667 483.333 76.1667 468 64.5C453 52.5 436.333 43 418 36C399.667 28.6667 379.667 25 358 25C337.333 25 317.667 29.3333 299 38C280.333 46.6667 263.333 57.5 248 70.5C232.667 83.1667 219.167 96.8333 207.5 111.5C196.167 125.833 187 139 180 151C174.667 160.333 169 172 163 186C157.333 200 152 216.333 147 235C142.333 253.667 138.333 274.833 135 298.5C132 321.833 130.5 347.5 130.5 375.5Z" fill="#F9C440"/>
</svg>
