<svg width="150" height="150" viewBox="0 0 150 150" fill="none" xmlns="http://www.w3.org/2000/svg">
<path d="M13.1509 16H107.199C115.91 16.3205 121.037 23.594 122.828 31.4145C131.884 26.6197 140.863 21.7308 149.941 17.0342C149.992 24.7778 150.013 32.5214 149.992 40.2906C128.374 52.235 106.146 63.1026 84.5999 75.2222C106.559 86.2863 128.301 97.7863 149.992 109.368V132.821C140.863 128.098 131.714 123.406 122.756 118.368C121.212 125.594 117.087 132.205 109.481 134H12.2423C6.74394 132.402 2.40154 128.594 0 123.427V95.5769C13.1253 88.6197 26.4255 82.0342 39.4057 74.782C26.2037 68.2179 13.0528 61.5812 0 54.6966V28.5641C1.10479 21.8547 6.5008 16.9615 13.1509 16.0043M13.3215 38.4487C29.71 46.141 45.6122 54.7222 61.5827 63.2051C77.6555 55.0171 93.5534 46.5855 109.477 38.1538C77.4337 38.2778 45.3648 37.7607 13.3172 38.4487M13.7097 111.726C45.6335 112.047 77.5531 111.778 109.477 111.897C93.8734 103 77.6768 95.2308 61.9282 86.6026C45.8809 95.0085 29.8081 103.419 13.7139 111.726" fill="black"/>
</svg>
