<svg width="150" height="150" viewBox="0 0 150 150" fill="none" xmlns="http://www.w3.org/2000/svg">
<path fill-rule="evenodd" clip-rule="evenodd" d="M37.108 149.994C33.4826 149.994 30.5594 148.673 28.6509 146.18C26.6914 143.616 26.1808 140.032 27.2467 136.358L31.5359 121.594C31.7047 121.014 31.7349 120.403 31.624 119.809C31.5132 119.216 31.2644 118.656 30.8977 118.176C30.5264 117.693 30.0488 117.302 29.5021 117.034C28.9553 116.765 28.3539 116.625 27.7446 116.626H15.4068C11.7814 116.626 8.85817 115.306 6.94974 112.813C4.99025 110.242 4.47963 106.665 5.54554 102.991L20.2896 52.5L21.9172 46.9515C24.1065 39.426 32.0784 33.3036 39.6994 33.3036H54.4626C56.2242 33.3036 57.7752 32.1556 58.2603 30.4847L63.1367 13.6926C65.326 6.16709 73.298 0.0510204 80.9253 0.0510204L112.488 0H135.593C139.219 0 142.148 1.31378 144.05 3.8074C146.01 6.37117 146.52 9.95536 145.454 13.6288L138.848 36.3712C136.659 43.8839 128.681 50 121.06 50L89.4271 50.0638H74.6702C73.8192 50.0612 72.9902 50.3337 72.3069 50.8406C71.6236 51.3474 71.1227 52.0615 70.8789 52.8763L58.5731 94.9936C58.4032 95.5745 58.3725 96.1871 58.4834 96.7821C58.5942 97.377 58.8436 97.9375 59.2113 98.4184C59.9645 99.3941 61.1261 99.9681 62.3708 99.9681L83.2741 99.9298H106.316C109.941 99.9298 112.864 101.244 114.773 103.744C116.732 106.307 117.243 109.892 116.177 113.565L109.565 136.301C107.382 143.82 99.4032 149.936 91.7823 149.936L60.1432 150H37.1016L37.108 149.994Z" fill="black"/>
</svg>
