<svg width="150" height="150" viewBox="0 0 150 150" fill="none" xmlns="http://www.w3.org/2000/svg">
<path d="M43.2182 1.68539C43.2182 0.754577 43.9752 0 44.9091 0H119.309C120.243 0 121 0.754576 121 1.68539V21.9101C121 22.8409 120.243 23.5955 119.309 23.5955H44.9091C43.9752 23.5955 43.2182 22.8409 43.2182 21.9101V1.68539Z" fill="black"/>
<path d="M43.2182 128.09C43.2182 127.159 43.9752 126.404 44.9091 126.404H104.091C105.025 126.404 105.782 127.159 105.782 128.09V148.315C105.782 149.245 105.025 150 104.091 150H44.9091C43.9752 150 43.2182 149.245 43.2182 148.315V128.09Z" fill="black"/>
<path d="M28 32.8652C28 31.9344 28.757 31.1798 29.6909 31.1798H55.9C56.8339 31.1798 57.5909 31.9344 57.5909 32.8652V53.0899C57.5909 54.0207 56.8339 54.7753 55.9 54.7753H29.6909C28.757 54.7753 28 54.0207 28 53.0899V32.8652Z" fill="black"/>
<path d="M28 96.0674C28 95.1366 28.757 94.382 29.6909 94.382H55.9C56.8339 94.382 57.5909 95.1366 57.5909 96.0674V116.292C57.5909 117.223 56.8339 117.978 55.9 117.978H29.6909C28.757 117.978 28 117.223 28 116.292V96.0674Z" fill="black"/>
<path d="M91.4091 96.0674C91.4091 95.1366 92.1661 94.382 93.1 94.382H119.309C120.243 94.382 121 95.1366 121 96.0674V116.292C121 117.223 120.243 117.978 119.309 117.978H93.1C92.1661 117.978 91.4091 117.223 91.4091 116.292V96.0674Z" fill="black"/>
<path d="M91.4091 32.8652C91.4091 31.9344 92.1661 31.1798 93.1 31.1798H119.309C120.243 31.1798 121 31.9344 121 32.8652V53.0899C121 54.0207 120.243 54.7753 119.309 54.7753H93.1C92.1661 54.7753 91.4091 54.0207 91.4091 53.0899V32.8652Z" fill="black"/>
<path d="M28 64.8876C28 63.9568 28.757 63.2022 29.6909 63.2022H55.9C56.8339 63.2022 57.5909 63.9568 57.5909 64.8876V85.1124C57.5909 86.0432 56.8339 86.7978 55.9 86.7978H29.6909C28.757 86.7978 28 86.0432 28 85.1124V64.8876Z" fill="black"/>
</svg>
