<svg width="150" height="150" viewBox="0 0 150 150" fill="none" xmlns="http://www.w3.org/2000/svg">
<path fill-rule="evenodd" clip-rule="evenodd" d="M0 25H60V45H20V65H50.9375V85H20V125H0V25Z" fill="black"/>
<path d="M100 85C105.523 85 110 80.5229 110 75C110 69.4772 105.523 65 100 65C94.4772 65 90 69.4772 90 75C90 80.5229 94.4772 85 100 85Z" fill="black"/>
<path fill-rule="evenodd" clip-rule="evenodd" d="M71.7072 85C75.8253 96.6519 86.9378 105 100 105C116.568 105 130 91.5684 130 75C130 58.4316 116.568 45 100 45C86.9378 45 75.8253 53.3481 71.7072 65H51.0003C55.6328 42.1775 75.8103 25 100 25C127.614 25 150 47.3856 150 75C150 102.614 127.614 125 100 125C75.8103 125 55.6328 107.823 51.0003 85H71.7072Z" fill="black"/>
</svg>
