<svg width="150" height="150" viewBox="0 0 150 150" fill="none" xmlns="http://www.w3.org/2000/svg">
<path d="M132.375 98.0124L148.453 106.034C150.516 107.062 150.516 109.998 148.453 111.026L77.505 146.412C76.7276 146.799 75.8707 147 75.0019 147C74.1332 147 73.2763 146.799 72.4989 146.412L1.55073 111.026C1.08726 110.793 0.697748 110.436 0.425597 109.996C0.153446 109.555 0.00934277 109.048 0.00934277 108.53C0.00934277 108.012 0.153446 107.505 0.425597 107.064C0.697748 106.623 1.08726 106.267 1.55073 106.034L17.6378 98.0124L67.4834 122.871C72.2176 125.227 77.7956 125.227 82.5205 122.871L132.366 98.003L132.375 98.0124ZM72.4989 3.5882C73.2763 3.20136 74.1332 3 75.0019 3C75.8707 3 76.7276 3.20136 77.505 3.5882L148.453 38.9645C148.916 39.199 149.305 39.5568 149.577 39.9982C149.849 40.4396 149.992 40.9475 149.992 41.4654C149.992 41.9833 149.849 42.4912 149.577 42.9326C149.305 43.374 148.916 43.7318 148.453 43.9662L77.505 79.3332C76.7276 79.7201 75.8707 79.9214 75.0019 79.9214C74.1332 79.9214 73.2763 79.7201 72.4989 79.3332L1.55073 43.9662C1.0848 43.7342 0.692908 43.3773 0.418999 42.9356C0.14509 42.4938 0 41.9848 0 41.4654C0 40.946 0.14509 40.4369 0.418999 39.9952C0.692908 39.5535 1.0848 39.1966 1.55073 38.9645L72.4989 3.5882Z" fill="black"/>
<path d="M132.375 64.4778L148.453 72.4992C150.516 73.5275 150.516 76.4631 148.453 77.4915L77.505 112.868C76.7276 113.255 75.8707 113.456 75.0019 113.456C74.1332 113.456 73.2763 113.255 72.4989 112.868L1.55073 77.4915C1.08726 77.2585 0.697748 76.9018 0.425597 76.4611C0.153446 76.0203 0.00934277 75.5129 0.00934277 74.9953C0.00934277 74.4777 0.153446 73.9703 0.425597 73.5296C0.697748 73.0889 1.08726 72.7321 1.55073 72.4992L17.6378 64.4778L67.4834 89.3366C72.2176 91.6925 77.7956 91.6925 82.5205 89.3366L132.375 64.4778Z" fill="black"/>
</svg>
